<svg width="328" height="64" viewBox="0 0 328 64" fill="none" xmlns="http://www.w3.org/2000/svg">
<path d="M261.337 32.45C259.817 34.8224 258.298 37.1932 256.778 39.5625C256.32 40.329 255.818 41.0689 255.276 41.7787C253.674 43.7386 251.501 43.7502 249.927 41.7437C248.98 40.5319 248.22 39.1803 247.383 37.8799C246.169 35.9946 244.959 34.1046 243.362 32.3102C243.329 32.9161 243.266 33.5197 243.266 34.1256C243.266 38.1898 243.266 42.2541 243.266 46.3183C243.298 46.9674 243.27 47.618 243.183 48.2619C243.054 48.9898 242.681 49.6518 242.126 50.1386C241.57 50.6255 240.866 50.908 240.129 50.9396C239.393 50.9996 238.659 50.7974 238.056 50.3686C237.454 49.9397 237.022 49.3118 236.836 48.5952C236.637 47.8111 236.547 47.0035 236.566 46.1948C236.548 38.1471 236.548 30.1002 236.566 22.054C236.542 21.3249 236.612 20.5957 236.773 19.8844C237.471 17.2324 240.366 16.4656 242.273 18.4232C242.813 19.0289 243.292 19.687 243.701 20.3877C246.194 24.2889 248.664 28.204 251.143 32.1051C251.567 32.7669 252.048 33.3938 252.625 34.2025C253.206 33.3542 253.669 32.7157 254.092 32.0538C256.669 28.0152 259.209 23.958 261.816 19.9356C263.309 17.6215 264.574 16.983 266.332 17.505C267.939 17.9711 268.597 19.2155 268.599 21.8606C268.599 30.0699 268.599 38.2792 268.599 46.4885C268.626 47.0573 268.603 47.6273 268.53 48.192C268.414 48.9218 268.053 49.5901 267.507 50.0863C266.96 50.5826 266.261 50.877 265.525 50.9209C263.974 51.0281 262.639 50.1915 262.192 48.6488C261.974 47.7863 261.876 46.8978 261.899 46.0084C261.871 41.548 261.888 37.0875 261.888 32.6271L261.332 32.443" fill="#333333"/>
<path d="M137.437 48.3088C133.577 51.3779 129.53 51.7228 125.367 49.8795C121.121 47.9988 119.088 44.4053 118.569 39.9192C118.203 37.162 118.649 34.3576 119.853 31.8513C123.416 24.5268 132.435 23.8207 136.772 27.5284C137.008 27.6985 137.254 27.8542 137.509 27.9945C137.831 27.4682 138.187 26.9637 138.574 26.4844C140.323 24.5757 143.189 25.1816 144.014 27.6379C144.189 28.1776 144.277 28.7415 144.277 29.3088C144.296 35.1582 144.296 41.0075 144.277 46.8569C144.281 47.4238 144.203 47.9883 144.044 48.5325C143.258 51.0959 140.274 51.7648 138.463 49.7862C138.091 49.3808 137.826 48.8774 137.43 48.2994L137.437 48.3088ZM137.619 38.1505C137.619 34.1514 135.184 31.4155 131.588 31.3596C127.939 31.3013 125.214 34.1957 125.2 38.1388C125.186 42.1168 127.816 44.897 131.577 44.8574C135.249 44.8271 137.623 42.1961 137.623 38.1505" fill="#333333"/>
<path d="M192.86 28.071C194.328 25.7266 195.537 25.0251 197.156 25.5075C198.839 25.9992 199.507 27.1808 199.511 29.7978C199.525 35.3303 199.525 40.8619 199.511 46.3928C199.525 46.9614 199.504 47.5303 199.449 48.0963C199.283 49.427 198.569 50.3591 197.281 50.76C195.916 51.1841 194.704 50.8788 193.758 49.7835C193.399 49.3132 193.066 48.823 192.762 48.3154C190.376 50.3102 187.676 51.2097 184.623 50.9068C179.532 50.4011 175.881 47.4112 174.39 42.5056C173.546 39.7675 173.518 36.8421 174.308 34.0881C176.757 25.2978 186.83 22.9021 192.865 28.0803L192.86 28.071ZM180.471 38.2409C180.504 42.17 183.22 44.9409 186.983 44.8757C190.604 44.8104 193.065 42.0442 193.03 38.0871C192.986 34.1814 190.4 31.3779 186.841 31.3779C183.216 31.3779 180.455 34.3608 180.49 38.2409" fill="#333333"/>
<path d="M293.662 48.2991C289.434 51.5617 285.071 51.839 280.713 49.448C276.087 46.9125 274.471 42.5243 274.666 37.5092C274.771 35.4813 275.285 33.4956 276.175 31.6715C279.278 25.3071 287.166 23.4381 292.957 27.5234C293.211 27.7028 293.469 27.8729 293.727 28.05C294.122 27.4581 294.425 26.8592 294.855 26.3978C295.694 25.5192 296.757 25.1393 297.96 25.4842C299.229 25.8478 300.071 26.6821 300.285 28.0197C300.359 28.5844 300.388 29.154 300.371 29.7233C300.371 35.3349 300.371 40.9474 300.371 46.5606C300.371 46.8845 300.371 47.2108 300.357 47.537C300.322 49.0634 299.683 50.203 298.201 50.7367C296.762 51.2587 295.427 50.7973 294.364 49.4363C294.107 49.0698 293.868 48.6902 293.65 48.2991H293.662ZM293.862 38.2783C293.922 34.2746 291.273 31.3359 287.634 31.3616C284.094 31.3895 281.392 34.2373 281.322 38.0196C281.25 41.9487 283.91 44.8384 287.62 44.8594C291.292 44.8803 293.806 42.2283 293.862 38.2783Z" fill="#333333"/>
<path d="M213.369 27.6557C215.483 26.1456 217.671 25.3695 220.101 25.3672C224.929 25.3672 228.706 28.4387 229.053 33.2347C229.395 38.0936 229.244 42.9922 229.178 47.8721C229.153 49.7364 227.76 50.9156 226.037 50.9459C224.241 50.9739 222.811 49.7015 222.753 47.7416C222.655 44.4091 222.725 41.0719 222.702 37.7347C222.728 36.8422 222.673 35.9491 222.539 35.0664C222.074 32.6637 220.183 31.1723 217.887 31.2981C215.429 31.4309 213.611 33.1625 213.536 35.684C213.439 39.0188 213.506 42.356 213.494 45.6931C213.524 46.4242 213.498 47.1565 213.418 47.8837C213.106 49.8739 211.752 51.0275 209.945 50.9273C208.138 50.827 206.948 49.5593 206.797 47.5412C206.766 47.1357 206.783 46.7278 206.783 46.32C206.783 40.8699 206.783 35.4183 206.783 29.9651C206.746 29.3159 206.776 28.6645 206.873 28.0215C206.979 27.4599 207.233 26.9366 207.607 26.5056C207.982 26.0745 208.464 25.7512 209.005 25.569C209.546 25.3867 210.125 25.3521 210.684 25.4685C211.242 25.585 211.759 25.8485 212.183 26.2318C212.604 26.5976 212.913 27.094 213.376 27.6557" fill="#333333"/>
<path d="M161.422 31.5149C158.598 31.5149 156.338 31.5289 154.08 31.5149C153.353 31.5359 152.625 31.4741 151.912 31.3308C151.309 31.2109 150.767 30.8829 150.38 30.4039C149.994 29.9248 149.787 29.3251 149.796 28.709C149.79 28.0948 149.986 27.4956 150.352 27.0028C150.718 26.5101 151.235 26.151 151.824 25.9801C151.973 25.9233 152.13 25.8887 152.289 25.8776C157.475 25.8776 162.666 25.7727 167.85 25.9149C169.999 25.9755 171.013 28.0868 170.075 30.0351C169.8 30.5317 169.47 30.996 169.092 31.4193C168.229 32.496 167.347 33.5587 166.475 34.626C164.271 37.3324 162.067 40.0388 159.866 42.7452C159.422 43.2928 159.022 43.8778 158.289 44.8635C160.594 44.8635 162.489 44.8635 164.387 44.8635C165.684 44.8635 166.987 44.796 168.275 44.9101C169.878 45.05 170.808 46.1243 170.834 47.6297C170.852 49.0653 170.089 50.0487 168.594 50.375C167.959 50.4949 167.312 50.5472 166.666 50.5311C162.205 50.5428 157.747 50.5311 153.289 50.5311C153.056 50.5311 152.803 50.5311 152.559 50.5311C151.289 50.4962 150.112 50.2235 149.489 48.9627C148.828 47.6228 149.256 46.4622 150.161 45.3786C153.311 41.5598 156.451 37.7324 159.58 33.8966C160.082 33.2837 160.55 32.6475 161.417 31.5242" fill="#333333"/>
<path d="M103.563 33.1996L111.329 42.1857C112.336 43.3509 113.378 44.4905 114.352 45.6813C115.594 47.2287 115.557 48.86 114.336 50.0369C113.05 51.2767 111.189 51.2627 109.796 49.7712C107.584 47.3989 105.498 44.91 103.363 42.4677C101.442 40.2678 99.5051 38.0842 97.6121 35.8609C95.7818 33.7123 95.7748 32.61 97.64 30.5802C101.21 26.7 104.817 22.8549 108.419 19.005C108.792 18.5781 109.214 18.1964 109.675 17.8678C110.248 17.4743 110.941 17.2939 111.632 17.3578C112.324 17.4218 112.972 17.7259 113.464 18.2178C113.955 18.7097 114.26 19.3582 114.325 20.0514C114.39 20.7445 114.211 21.4386 113.819 22.0136C113.392 22.6052 112.917 23.1616 112.401 23.6775C109.54 26.77 106.67 29.8531 103.563 33.1903" fill="#333333"/>
<path d="M321.279 31.9328C321.279 27.0599 321.384 22.1846 321.235 17.3141C321.156 14.7156 322.472 12.9399 324.679 12.9771C326.772 13.0144 327.972 14.4686 327.981 17.2162C328.006 27.0443 328.006 36.8725 327.981 46.7007C327.985 47.348 327.895 47.9925 327.714 48.6139C327.233 50.1707 325.96 51.0259 324.412 50.9327C323.675 50.9008 322.972 50.6176 322.417 50.1302C321.863 49.6429 321.492 48.9805 321.365 48.2527C321.277 47.6104 321.248 46.9614 321.279 46.3138C321.279 41.5225 321.279 36.7304 321.279 31.9375" fill="#333333"/>
<path d="M307.429 31.9697C307.429 27.2607 307.429 22.5524 307.429 17.845C307.408 17.1957 307.429 16.5457 307.492 15.8991C307.724 14.0674 308.996 12.9534 310.761 12.9674C312.527 12.9814 313.748 14.1186 313.973 15.9737C314.024 16.5392 314.041 17.1073 314.022 17.6749C314.022 27.1737 314.022 36.6709 314.022 46.1666C314.051 46.8964 314.013 47.6274 313.908 48.3502C313.745 49.08 313.336 49.7314 312.751 50.1954C312.166 50.6594 311.439 50.9078 310.693 50.8991C309.947 50.8903 309.226 50.625 308.652 50.1474C308.077 49.6698 307.684 49.009 307.538 48.2756C307.441 47.5521 307.406 46.8216 307.433 46.092C307.424 41.3846 307.424 36.6771 307.433 31.9697" fill="#333333"/>
<path d="M94.8516 34.3776C94.8516 38.3556 94.8516 42.3313 94.8516 46.3093C94.8774 47.0379 94.8291 47.7672 94.7074 48.486C94.4028 49.9192 93.212 50.8513 91.7539 50.9282C90.2282 51.0075 88.805 50.0706 88.4375 48.6141C88.2921 47.8991 88.235 47.1688 88.2677 46.4398C88.2584 38.243 88.2584 30.0461 88.2677 21.8492C88.2437 21.2008 88.2819 20.5515 88.3817 19.9103C88.7119 18.279 90.0492 17.2979 91.7399 17.3748C93.3121 17.4471 94.5121 18.4352 94.7493 20.0222C94.8556 20.9893 94.8922 21.9628 94.8586 22.9352C94.8586 26.7501 94.8586 30.565 94.8586 34.3776" fill="#333333"/>
<path fill-rule="evenodd" clip-rule="evenodd" d="M69.8691 29.6669C69.5006 28.2507 68.8691 26.9445 68.161 25.6789C66.8122 23.2655 65.4423 20.8602 64.0512 18.4632C62.9683 16.5836 61.8734 14.7132 60.7665 12.8519C60.1713 11.8225 59.4239 10.8895 58.5497 10.0847C57.0945 8.7814 55.4225 8.30643 53.5193 8.82774C52.579 9.10914 51.6976 9.55958 50.9182 10.1571C49.9066 10.8927 49.0179 11.7601 48.1378 12.6405C45.3777 15.4082 42.618 18.1779 39.8589 20.9495C38.249 22.5699 36.6378 24.1888 35.0482 25.828C34.0771 26.8301 33.2216 27.9263 32.6349 29.2107C31.7866 31.0657 31.7678 32.9294 32.6262 34.7771C32.9118 35.4033 33.2635 35.997 33.6753 36.5481C34.2875 37.3518 34.9492 38.1164 35.6565 38.8375C39.8252 43.0543 44.0072 47.259 48.2028 51.4516C48.8228 52.0728 49.4471 52.6332 50.1104 53.2067C51.0106 53.9857 52.0309 54.6764 53.1711 55.0631C55.0641 55.7046 56.7838 55.3947 58.3257 54.116C58.6136 53.8797 58.8863 53.6253 59.1422 53.3544C59.9136 52.5099 60.5843 51.5783 61.1407 50.5784C63.2236 46.9949 65.2949 43.4052 67.3546 39.8091C68.0006 38.6782 68.6003 37.5183 69.1567 36.341C69.8278 34.9837 70.1783 33.4899 70.1812 31.9751C70.1807 31.1952 70.0757 30.4188 69.8691 29.6669ZM18.2432 32.1286C18.2331 29.648 18.2779 27.5817 18.2808 26.946C18.2923 24.5422 18.3501 22.1456 18.3617 19.7418C18.3617 18.7166 18.3617 17.7145 18.3501 16.6864C18.3429 16.1694 18.327 15.6337 18.327 15.1152C18.3475 14.0117 18.2399 12.9096 18.0062 11.831C17.788 10.9057 17.405 10.0108 16.7374 9.3085C15.7649 8.28616 14.4628 8.0704 13.1796 8.65252C12.4775 8.98733 11.8522 9.46408 11.3429 10.0528C10.6043 10.8874 9.95659 11.7986 9.41079 12.7708C7.04084 16.866 4.67763 20.9645 2.32117 25.0664C1.64822 26.219 1.07391 27.4266 0.604396 28.6764C-0.181601 30.7467 -0.201594 33.0307 0.548037 35.1145C0.966077 36.2884 1.48036 37.4257 2.08561 38.5146C4.33129 42.4605 6.59719 46.3472 8.85876 50.2859C9.46733 51.3915 10.1566 52.4505 10.9209 53.4543C11.3674 54.0422 11.9961 54.7199 12.7446 55.1485C13.7403 55.7176 14.7677 55.8841 15.8313 55.3672C16.53 55.011 17.0929 54.4352 17.4339 53.728C17.9686 52.7143 18.1493 51.5819 18.262 50.3699C18.2938 49.8428 18.3024 49.5083 18.3183 49.0145C18.3718 47.368 18.3819 45.6839 18.3747 44.0389C18.3631 41.5425 18.2605 36.2281 18.2432 32.13V32.1286ZM47.6624 56.0782C46.8806 55.1297 46.0627 54.2073 45.2057 53.3268C41.0631 49.1535 36.9157 44.9951 32.7635 40.8517C32.0192 40.1074 31.2418 39.3921 30.4513 38.6985C29.644 37.9732 28.7056 37.4094 27.6869 37.0375C26.0308 36.4511 24.4715 36.8247 23.3762 38.0715C22.9385 38.5866 22.6061 39.1829 22.3978 39.8265C22.0279 40.8908 21.8892 42.0869 21.8733 43.2034C21.84 45.6246 21.827 47.956 21.84 50.3771C21.8487 52.1365 21.9022 53.8974 21.9585 55.6568C21.9857 56.6985 22.1312 57.7338 22.392 58.7426C22.9383 60.8047 24.1175 62.3396 26.1088 63.1838C26.7707 63.4544 27.4633 63.6421 28.171 63.7428C29.3854 63.9193 30.6115 64.0036 31.8386 63.9948C33.4022 63.9948 34.9658 63.9948 36.5294 63.9948C37.7996 63.9948 39.0713 63.9948 40.343 63.9948C41.6719 64.0187 43.001 63.9607 44.3228 63.821C45.3459 63.6993 46.3314 63.4575 47.226 62.9203C48.6783 62.0514 49.3372 60.5266 48.9933 58.857C48.7833 57.8355 48.3263 56.8813 47.6624 56.0782ZM22.0568 22.6915C22.2013 23.6111 22.4383 24.5045 22.9238 25.2981C23.5105 26.2523 24.3184 26.93 25.4296 27.1429C26.3559 27.321 27.2793 27.1429 28.1435 26.7577C29.1932 26.2694 30.1563 25.6125 30.9947 24.813C31.8227 24.0469 32.6305 23.2592 33.4268 22.4613C37.5645 18.3102 41.6975 14.159 45.8257 10.0079C46.5844 9.27202 47.2746 8.4684 47.8878 7.60702C48.3635 6.9486 48.7174 6.20996 48.9326 5.42623C49.2881 3.90865 48.9904 2.44611 47.6768 1.38902C47.2916 1.09221 46.8682 0.848685 46.4181 0.664985C45.4687 0.252285 44.1204 0.145129 43.2462 0.0857578C42.1002 0.00756212 40.9629 0.0205947 39.8372 0.00756213C38.6681 -0.00691854 32.236 -0.00257434 30.0742 0.0379715C29.1389 0.0552591 28.2086 0.178649 27.301 0.405781C24.7114 1.04776 23.0789 2.6667 22.4036 5.2626C22.0134 6.76569 21.9238 8.30354 21.9036 9.84573C21.8776 11.7557 21.8415 13.7048 21.8357 15.6148C21.8357 16.8008 21.8545 17.9491 21.853 19.1351C21.8516 20.321 21.8646 21.5128 22.0568 22.6915Z" fill="url(#paint0_linear)"/>
<defs>
<linearGradient id="paint0_linear" x1="12.1767" y1="9.20568" x2="57.9978" y2="54.9326" gradientUnits="userSpaceOnUse">
<stop stop-color="#FF8519"/>
<stop offset="1" stop-color="#FD238A"/>
</linearGradient>
</defs>
</svg>
