<svg width="206" height="27" viewBox="0 0 206 27" fill="none" xmlns="http://www.w3.org/2000/svg">
<path d="M206 8.74957V11.6754H198.475V19.199H195.566V11.6754H188.056V8.74957H206Z" fill="#77C961"/>
<path d="M182.481 8.74957C184.9 8.74957 186.859 8.7645 186.859 13.1533C186.859 17.5569 184.9 17.5569 182.481 17.5569H171.691V19.199H168.797V8.74957H182.481ZM182.511 14.6311C183.327 14.6311 183.98 14.6162 183.98 13.1533C183.98 11.6754 183.327 11.6754 182.511 11.6754H171.691V14.6311H182.511Z" fill="#77C961"/>
<path d="M164.234 19.199L163.67 17.2584H152.612L152.048 19.199H149.05L152.212 8.74957H164.07L167.247 19.199H164.234ZM153.473 14.3326H162.838L162.067 11.6754H154.245L153.473 14.3326Z" fill="#77C961"/>
<path d="M149.806 8.74957V11.6754H142.281V19.199H139.372V11.6754H131.862V8.74957H149.806Z" fill="#77C961"/>
<path d="M117.702 11.6754C116.441 11.6754 115.417 11.7351 115.417 13.9743C115.417 16.2135 116.441 16.2732 117.702 16.2732H130.585V19.199H117.702C114.838 19.199 112.522 19.199 112.522 13.9743C112.522 8.74957 114.838 8.74957 117.702 8.74957H130.585V11.6754H117.702Z" fill="#77C961"/>
<path d="M107.55 8.74957H110.459V19.199H107.55V12.6159L103.038 16.109H99.2533L94.7265 12.6159V19.199H91.8322V8.74957H94.7265L101.138 13.7802L107.55 8.74957Z" fill="#EDEDED"/>
<path d="M84.5858 8.74957C87.4503 8.74957 89.7657 8.74957 89.7657 13.9743C89.7657 19.199 87.4503 19.199 84.571 19.199H76.4227C73.5581 19.199 71.2428 19.199 71.2428 13.9743C71.2428 8.74957 73.5581 8.74957 76.4227 8.74957H84.5858Z" fill="#EDEDED"/>
<path d="M65.2227 8.74957C67.6419 8.74957 69.6011 8.7645 69.6011 13.1533C69.6011 17.5569 67.6419 17.5569 65.2227 17.5569H54.4324V19.199H51.5382V8.74957H65.2227ZM65.2523 14.6311C66.0687 14.6311 66.7217 14.6162 66.7217 13.1533C66.7217 11.6754 66.0687 11.6754 65.2523 11.6754H54.4324V14.6311H65.2523Z" fill="#EDEDED"/>
<path d="M32 8.74966H49.1426V19.1991H46.2336V11.6755H34.8942V19.1991H32V8.74966Z" fill="#EDEDED"/>
<path d="M83.7184 13.4056C84.1265 13.6326 84.1269 14.2267 83.7192 14.4543L78.0995 17.5913C77.7063 17.8108 77.2248 17.5227 77.2245 17.0676L77.2198 10.8021C77.2195 10.3471 77.7005 10.0582 78.0941 10.2771L83.7184 13.4056Z" fill="#292A2A"/>
<path d="M10.0547 14.302C11.0928 14.302 11.1548 14.4079 11.2694 16.3849C11.3891 18.453 11.3992 18.4675 12.6421 18.3738C14.1902 18.2568 15.1312 19.1608 14.3881 20.0508C14.1026 20.3924 13.3663 20.6014 12.6421 20.5467L11.3898 20.4527L11.277 23.2301C11.1549 26.224 10.665 27 8.89819 27C6.76404 26.9998 4.80282 25.1054 4.80282 23.0444C4.80275 22.5485 4.4211 22.2179 3.65572 22.0508C0.970543 21.4643 -0.872888 17.48 0.425388 15.0689C0.680594 14.5953 1.26007 14.302 1.93977 14.302C2.83735 14.302 3.11107 14.5403 3.42242 15.5917C4.23892 18.3477 7.76199 18.3477 8.5785 15.5917C8.88908 14.543 9.16445 14.302 10.0547 14.302Z" fill="#EDEDED"/>
<path d="M17.9774 10.7301C18.6096 10.7306 19.1427 11.8166 19.0605 12.9369C18.9775 14.0696 19.033 14.1065 20.9715 14.2196C23.2696 14.3538 23.9656 14.9947 23.9656 16.9766C23.9656 19.3598 21.7524 22.2379 19.9196 22.2383C19.4298 22.2383 19.1751 22.5229 19.1751 23.0701C19.1749 25.7671 15.8873 27.8272 13.5595 26.5894C12.4353 25.9914 12.4196 22.2387 13.5412 22.2383C14.5868 22.2382 15.9 21.0474 16.1863 19.8399C16.5006 18.5119 15.0932 16.6831 13.7563 16.6828C12.9499 16.6828 12.7873 16.4866 12.7873 15.5128C12.7873 14.3816 12.8562 14.3394 14.8834 14.2231C16.9314 14.1061 16.9772 14.0767 16.8938 12.9369C16.8467 12.2949 17.003 11.5357 17.2417 11.25C17.4804 10.964 17.8118 10.7301 17.9774 10.7301Z" fill="#77C961"/>
<path d="M6.84257 0.570069C8.00269 -0.0691268 9.38211 -0.124195 10.4185 0.426962C11.0155 0.744815 11.1906 1.26595 11.1906 2.72603C11.1906 4.51329 11.1211 4.63413 9.89309 4.99356C8.14848 5.50426 7.34492 7.11864 8.0743 8.64718C8.39567 9.32058 9.09265 9.88346 9.89309 10.118C10.9479 10.4266 11.1906 10.7007 11.1906 11.5853C11.1906 12.6174 11.0836 12.6793 9.09446 12.7932C7.01377 12.9123 6.99929 12.9221 7.0935 14.1577C7.21127 15.6965 6.30179 16.6319 5.40635 15.8931C5.06261 15.6094 4.85233 14.8775 4.90743 14.1577C5.00163 12.9222 4.98665 12.9122 2.9094 12.7932C0.389947 12.6488 -0.180904 11.9117 0.12686 9.198C0.289349 7.76437 0.632102 7.11168 1.76348 6.08117C2.55029 5.36461 3.55599 4.77806 3.99833 4.77802C4.56186 4.77797 4.8073 4.51107 4.81693 3.88549C4.83693 2.63281 5.71845 1.18913 6.84257 0.570069Z" fill="#EDEDED"/>
<path d="M13.4754 0.512242C15.5442 -1.03791 19.175 1.16575 19.1751 3.97194C19.1752 4.46787 19.5566 4.79847 20.3222 4.96552C23.9913 5.76681 25.5295 12.7141 22.0381 12.7144C21.1423 12.7144 20.8655 12.4754 20.5549 11.4334C20.3357 10.6986 19.7051 9.89488 19.0752 9.54847C18.0923 9.00763 17.8619 9.00768 16.8791 9.54847C16.2492 9.89487 15.6186 10.6986 15.3994 11.4334C15.0896 12.4729 14.8113 12.7143 13.9232 12.7144C12.8849 12.7144 12.8231 12.6085 12.7085 10.6314C12.5888 8.56336 12.5782 8.54887 11.3352 8.64251C9.7872 8.75949 8.84625 7.85549 9.58927 6.96552C9.87477 6.62395 10.6111 6.41488 11.3352 6.46961L12.5875 6.56365L12.7009 3.78619C12.7835 1.76017 12.9928 0.874155 13.4754 0.512242Z" fill="#EDEDED"/>
</svg>
