<svg width="420" height="149" viewBox="0 0 420 149" fill="none" xmlns="http://www.w3.org/2000/svg">
<path d="M419.228 123.968V130.977H401.098V149H394.089V130.977H375.994V123.968H419.228Z" fill="#77C961"/>
<path d="M362.563 123.968C368.392 123.968 373.112 124.004 373.112 134.517C373.112 145.067 368.392 145.067 362.563 145.067H336.565V149H329.592V123.968H362.563ZM362.634 138.058C364.601 138.058 366.174 138.022 366.174 134.517C366.174 130.977 364.601 130.977 362.634 130.977H336.565V138.058H362.634Z" fill="#77C961"/>
<path d="M318.598 149L317.239 144.351H290.598L289.239 149H282.016L289.633 123.968H318.205L325.857 149H318.598ZM292.672 137.342H315.237L313.377 130.977H294.532L292.672 137.342Z" fill="#77C961"/>
<path d="M283.836 123.968V130.977H265.706V149H258.697V130.977H240.603V123.968H283.836Z" fill="#77C961"/>
<path d="M206.487 130.977C203.448 130.977 200.98 131.12 200.98 136.484C200.98 141.848 203.448 141.991 206.487 141.991H237.527V149H206.487C199.586 149 194.007 149 194.007 136.484C194.007 123.968 199.586 123.968 206.487 123.968H237.527V130.977H206.487Z" fill="#77C961"/>
<path d="M182.027 123.968H189.036V149H182.027V133.23L171.156 141.598H162.037L151.13 133.23V149H144.157V123.968H151.13L166.579 136.019L182.027 123.968Z" fill="#292A2A"/>
<path d="M126.698 123.968C133.6 123.968 139.178 123.968 139.178 136.484C139.178 149 133.6 149 126.662 149H107.03C100.128 149 94.5498 149 94.5498 136.484C94.5498 123.968 100.128 123.968 107.03 123.968H126.698Z" fill="#292A2A"/>
<path d="M80.0452 123.968C85.8741 123.968 90.5944 124.004 90.5944 134.517C90.5944 145.067 85.8741 145.067 80.0452 145.067H54.0478V149H47.0746V123.968H80.0452ZM80.1168 138.058C82.0836 138.058 83.657 138.022 83.657 134.517C83.657 130.977 82.0836 130.977 80.1168 130.977H54.0478V138.058H80.1168Z" fill="#292A2A"/>
<path d="M0 123.968H41.3027V149H34.2938V130.977H6.97319V149H0V123.968Z" fill="#292A2A"/>
<path d="M124.608 135.122C125.591 135.665 125.592 137.089 124.61 137.634L111.07 145.148C110.123 145.674 108.963 144.984 108.962 143.894L108.951 128.885C108.95 127.795 110.109 127.103 111.057 127.627L124.608 135.122Z" fill="#77C961"/>
<path d="M202.602 54.4586C206.598 54.4587 206.836 54.862 207.277 62.39C207.738 70.2648 207.777 70.3198 212.561 69.9633C218.52 69.5179 222.142 72.96 219.282 76.3489C218.183 77.6497 215.348 78.4456 212.561 78.2372L207.741 77.8791L207.307 88.455C206.836 99.8551 204.951 102.81 198.15 102.81C189.936 102.809 182.387 95.5955 182.387 87.7477C182.386 85.8596 180.917 84.6006 177.971 83.9644C167.635 81.7312 160.54 66.5598 165.537 57.379C166.519 55.5757 168.75 54.4586 171.366 54.4586C174.821 54.4589 175.875 55.3661 177.073 59.3696C180.216 69.8639 193.777 69.8639 196.92 59.3696C198.115 55.3764 199.175 54.4586 202.602 54.4586Z" fill="#292A2A"/>
<path d="M233.098 40.8579C235.531 40.8595 237.583 44.9947 237.267 49.2608C236.947 53.5738 237.161 53.7144 244.622 54.145C253.468 54.6559 256.147 57.0965 256.147 64.6431C256.147 73.7175 247.628 84.6769 240.574 84.6784C238.688 84.6784 237.708 85.7622 237.708 87.8456C237.707 98.1151 225.052 105.96 216.092 101.246C211.765 98.9693 211.705 84.6799 216.022 84.6784C220.047 84.678 225.101 80.1437 226.203 75.546C227.413 70.4891 221.996 63.5253 216.85 63.5243C213.746 63.5243 213.12 62.7773 213.12 59.0693C213.12 54.7618 213.385 54.6011 221.188 54.1584C229.071 53.7127 229.248 53.6008 228.927 49.2608C228.745 46.816 229.347 43.9252 230.266 42.8374C231.185 41.7483 232.46 40.8579 233.098 40.8579Z" fill="#77C961"/>
<path d="M190.238 2.17069C194.703 -0.263219 200.013 -0.472905 204.002 1.62577C206.3 2.83609 206.974 4.82044 206.974 10.3801C206.974 17.1856 206.707 17.6457 201.98 19.0143C195.264 20.959 192.171 27.1061 194.979 32.9265C196.216 35.4906 198.899 37.6339 201.98 38.5269C206.04 39.7022 206.974 40.7458 206.974 44.114C206.974 48.044 206.562 48.28 198.906 48.7136C190.897 49.1669 190.841 49.2044 191.204 53.9093C191.657 59.7688 188.156 63.3305 184.71 60.5173C183.386 59.4369 182.577 56.6502 182.789 53.9093C183.152 49.2046 183.094 49.1668 175.098 48.7136C165.401 48.1636 163.203 45.3571 164.388 35.0239C165.013 29.5649 166.333 27.0797 170.688 23.1557C173.716 20.4272 177.587 18.1938 179.29 18.1936C181.459 18.1934 182.404 17.1771 182.441 14.7951C182.518 10.0251 185.911 4.52794 190.238 2.17069Z" fill="#292A2A"/>
<path d="M215.769 1.9505C223.732 -3.95213 237.707 4.4389 237.708 15.1242C237.708 17.0126 239.176 18.2715 242.123 18.9076C256.246 21.9587 262.167 48.4125 248.728 48.4133C245.28 48.4133 244.214 47.5036 243.019 43.5357C242.175 40.7377 239.748 37.6774 237.323 36.3584C233.54 34.299 232.653 34.2992 228.87 36.3584C226.446 37.6774 224.018 40.7378 223.174 43.5357C221.982 47.4941 220.911 48.4132 217.492 48.4133C213.496 48.4133 213.258 48.0103 212.817 40.482C212.356 32.6073 212.315 32.5521 207.531 32.9087C201.572 33.3541 197.95 29.9119 200.81 26.5231C201.909 25.2225 204.744 24.4264 207.531 24.6348L212.351 24.9929L212.787 14.417C213.106 6.70231 213.911 3.32858 215.769 1.9505Z" fill="#292A2A"/>
</svg>
