<svg xmlns="http://www.w3.org/2000/svg"><symbol fill="none" id="arrow" viewBox="0 0 12 7"><title>arrow</title><path d="M1 1l5 5 5-5" stroke="#333" stroke-width="2" stroke-linecap="round" stroke-linejoin="round"/></symbol><symbol fill="none" id="logo" viewBox="0 0 328 64"><title>logo</title><path d="M261.337 32.45c-1.52 2.372-3.039 4.743-4.559 7.112-.458.767-.96 1.507-1.502 2.217-1.602 1.96-3.775 1.971-5.349-.035-.947-1.212-1.707-2.564-2.544-3.864-1.214-1.885-2.424-3.775-4.021-5.57-.033.606-.096 1.21-.096 1.816v12.192c.032.65.004 1.3-.083 1.944a3.242 3.242 0 01-3.054 2.678 3.137 3.137 0 01-3.293-2.345 8.907 8.907 0 01-.27-2.4 5396.19 5396.19 0 010-24.141 8.554 8.554 0 01.207-2.17c.698-2.652 3.593-3.418 5.5-1.46a12.18 12.18 0 011.428 1.964c2.493 3.9 4.963 7.816 7.442 11.717.424.662.905 1.289 1.482 2.098.581-.849 1.044-1.487 1.467-2.15 2.577-4.038 5.117-8.095 7.724-12.117 1.493-2.314 2.758-2.953 4.516-2.431 1.607.466 2.265 1.71 2.267 4.356v24.628a9.7 9.7 0 01-.069 1.703 3.236 3.236 0 01-3.005 2.729c-1.551.107-2.886-.73-3.333-2.272a9.747 9.747 0 01-.293-2.64c-.028-4.461-.011-8.922-.011-13.382l-.556-.184M137.437 48.309c-3.86 3.069-7.907 3.414-12.07 1.57-4.246-1.88-6.279-5.474-6.798-9.96a14.29 14.29 0 011.284-8.068c3.563-7.324 12.582-8.03 16.919-4.323.236.17.482.326.737.466.322-.526.678-1.03 1.065-1.51 1.749-1.908 4.615-1.302 5.44 1.154.175.54.263 1.103.263 1.67.019 5.85.019 11.7 0 17.549a5.828 5.828 0 01-.233 1.675c-.786 2.564-3.77 3.233-5.581 1.254-.372-.405-.637-.909-1.033-1.487l.007.01zm.182-10.158c0-4-2.435-6.736-6.031-6.791-3.649-.059-6.374 2.836-6.388 6.779-.014 3.978 2.616 6.758 6.377 6.718 3.672-.03 6.046-2.66 6.046-6.706m55.237-10.08c1.468-2.344 2.677-3.046 4.296-2.564 1.683.492 2.351 1.674 2.355 4.29a3278.9 3278.9 0 010 16.596 14.04 14.04 0 01-.062 1.703c-.166 1.331-.88 2.263-2.168 2.664-1.365.424-2.577.119-3.523-.977a15.8 15.8 0 01-.996-1.468c-2.386 1.995-5.086 2.895-8.139 2.592-5.091-.506-8.742-3.496-10.233-8.401a14.761 14.761 0 01-.082-8.418c2.449-8.79 12.522-11.186 18.557-6.008l-.005-.009zm-12.389 10.17c.033 3.929 2.749 6.7 6.512 6.635 3.621-.066 6.082-2.832 6.047-6.789-.044-3.906-2.63-6.71-6.189-6.71-3.625 0-6.386 2.984-6.351 6.864M293.662 48.3c-4.228 3.262-8.591 3.539-12.949 1.148-4.626-2.535-6.242-6.924-6.047-11.939a15.094 15.094 0 011.509-5.837c3.103-6.365 10.991-8.234 16.782-4.149.254.18.512.35.77.527.395-.592.698-1.19 1.128-1.652.839-.879 1.902-1.259 3.105-.914 1.269.364 2.111 1.198 2.325 2.536.074.564.103 1.134.086 1.703v16.838c0 .324 0 .65-.014.976-.035 1.526-.674 2.666-2.156 3.2-1.439.522-2.774.06-3.837-1.3a13.043 13.043 0 01-.714-1.138h.012zm.2-10.022c.06-4.003-2.589-6.942-6.228-6.916-3.54.028-6.242 2.875-6.312 6.658-.072 3.929 2.588 6.818 6.298 6.84 3.672.02 6.186-2.632 6.242-6.582zm-80.493-10.622c2.114-1.51 4.302-2.287 6.732-2.289 4.828 0 8.605 3.072 8.952 7.868.342 4.859.191 9.757.125 14.637-.025 1.864-1.418 3.044-3.141 3.074-1.796.028-3.226-1.244-3.284-3.204-.098-3.333-.028-6.67-.051-10.007a14.89 14.89 0 00-.163-2.669c-.465-2.402-2.356-3.894-4.652-3.768-2.458.133-4.276 1.865-4.351 4.386-.097 3.335-.03 6.672-.042 10.01.03.73.004 1.462-.076 2.19-.312 1.99-1.666 3.144-3.473 3.043-1.807-.1-2.997-1.368-3.148-3.386-.031-.405-.014-.813-.014-1.221V29.965c-.037-.65-.007-1.3.09-1.944a3.211 3.211 0 015.31-1.79c.421.367.73.863 1.193 1.425m-51.954 3.859c-2.824 0-5.084.014-7.342 0a9.6 9.6 0 01-2.168-.184 2.629 2.629 0 01-2.116-2.622 2.817 2.817 0 012.028-2.729c.149-.057.306-.091.465-.102 5.186 0 10.377-.105 15.561.037 2.149.06 3.163 2.172 2.225 4.12a7.598 7.598 0 01-.983 1.384c-.863 1.077-1.745 2.14-2.617 3.207-2.204 2.706-4.408 5.413-6.609 8.12-.444.547-.844 1.132-1.577 2.117h6.098c1.297 0 2.6-.067 3.888.047 1.603.14 2.533 1.214 2.559 2.72.018 1.435-.745 2.419-2.24 2.745a9.166 9.166 0 01-1.928.156c-4.461.012-8.919 0-13.377 0h-.73c-1.27-.035-2.447-.307-3.07-1.568-.661-1.34-.233-2.5.672-3.584 3.15-3.82 6.29-7.647 9.419-11.482.502-.613.97-1.25 1.837-2.373M103.563 33.2l7.766 8.986c1.007 1.165 2.049 2.304 3.023 3.495 1.242 1.548 1.205 3.179-.016 4.356-1.286 1.24-3.147 1.226-4.54-.266-2.212-2.372-4.298-4.861-6.433-7.303-1.921-2.2-3.858-4.384-5.75-6.607-1.831-2.149-1.838-3.251.027-5.28 3.57-3.881 7.177-7.726 10.779-11.576a7.278 7.278 0 011.256-1.137 2.975 2.975 0 013.789.35 2.991 2.991 0 01.355 3.796 13.657 13.657 0 01-1.418 1.663 4109.895 4109.895 0 01-8.838 9.513m217.716-1.257c0-4.873.105-9.748-.044-14.619-.079-2.598 1.237-4.374 3.444-4.337 2.093.037 3.293 1.492 3.302 4.24.025 9.827.025 19.656 0 29.484a6.694 6.694 0 01-.267 1.913c-.481 1.557-1.754 2.412-3.302 2.319a3.234 3.234 0 01-3.047-2.68 10.563 10.563 0 01-.086-1.94V31.938m-13.85.032V17.845c-.021-.65 0-1.3.063-1.946.232-1.832 1.504-2.946 3.269-2.932 1.766.014 2.987 1.152 3.212 3.007a13.8 13.8 0 01.049 1.7v28.493c.029.73-.009 1.46-.114 2.183a3.264 3.264 0 01-1.157 1.845 3.251 3.251 0 01-5.213-1.92 12.855 12.855 0 01-.105-2.183c-.009-4.707-.009-9.415 0-14.122M94.852 34.378v11.931c.025.729-.023 1.458-.145 2.177-.304 1.433-1.495 2.365-2.953 2.442-1.526.08-2.949-.857-3.317-2.314a8.908 8.908 0 01-.17-2.174c-.009-8.197-.009-16.394 0-24.59-.023-.65.015-1.299.115-1.94.33-1.631 1.667-2.612 3.358-2.535 1.572.072 2.772 1.06 3.01 2.647.106.967.142 1.94.109 2.913v11.443" fill="#333"/><path fill-rule="evenodd" clip-rule="evenodd" d="M69.87 29.667c-.37-1.416-1-2.723-1.709-3.988a512.247 512.247 0 00-4.11-7.216 470.41 470.41 0 00-3.285-5.611 11.767 11.767 0 00-2.216-2.767c-1.456-1.304-3.127-1.779-5.03-1.257a8.085 8.085 0 00-2.602 1.33c-1.011.735-1.9 1.602-2.78 2.482-2.76 2.768-5.52 5.538-8.28 8.31-1.609 1.62-3.22 3.239-4.81 4.878-.97 1.002-1.826 2.098-2.413 3.383-.848 1.855-.867 3.718-.009 5.566.286.626.638 1.22 1.05 1.771a24.28 24.28 0 001.98 2.29 2919.59 2919.59 0 0012.547 12.614 34.78 34.78 0 001.907 1.755c.9.779 1.92 1.47 3.061 1.856 1.893.642 3.613.332 5.155-.947.288-.236.56-.49.816-.762a14.751 14.751 0 001.999-2.776 1950.46 1950.46 0 006.214-10.769 50.482 50.482 0 001.802-3.468 9.893 9.893 0 001.024-4.366c0-.78-.105-1.556-.312-2.308zm-51.627 2.462c-.01-2.481.035-4.547.038-5.183.011-2.404.07-4.8.08-7.204 0-1.025 0-2.027-.01-3.056-.008-.517-.024-1.052-.024-1.57a14.259 14.259 0 00-.32-3.285c-.219-.925-.602-1.82-1.27-2.522-.972-1.023-2.274-1.239-3.557-.656a5.637 5.637 0 00-1.837 1.4A15.694 15.694 0 009.41 12.77a4708.96 4708.96 0 00-7.09 12.295 23.667 23.667 0 00-1.717 3.61 9.285 9.285 0 00-.056 6.439 22.614 22.614 0 001.538 3.4c2.245 3.946 4.511 7.832 6.773 11.77a25.64 25.64 0 002.062 3.17c.446.587 1.075 1.265 1.824 1.694.995.569 2.023.735 3.086.218a3.59 3.59 0 001.603-1.639c.535-1.014.715-2.146.828-3.358.032-.527.04-.862.056-1.355.054-1.647.064-3.331.057-4.976-.012-2.497-.114-7.81-.132-11.909v-.001zm29.42 23.95c-.782-.95-1.6-1.872-2.457-2.752-4.143-4.173-8.29-8.332-12.443-12.475a48.527 48.527 0 00-2.312-2.153 8.496 8.496 0 00-2.764-1.661c-1.656-.587-3.216-.213-4.31 1.034a5.167 5.167 0 00-.98 1.755c-.37 1.064-.508 2.26-.524 3.376a370.52 370.52 0 00-.033 7.174c.009 1.76.062 3.52.119 5.28.027 1.042.172 2.077.433 3.086.546 2.062 1.726 3.597 3.717 4.44a8.68 8.68 0 002.062.56c1.214.176 2.44.26 3.668.252h8.504a32.333 32.333 0 003.98-.174c1.023-.122 2.008-.363 2.903-.9 1.452-.87 2.111-2.394 1.767-4.064a6.377 6.377 0 00-1.33-2.779zM22.056 22.69c.144.92.381 1.814.867 2.607.587.954 1.394 1.632 2.506 1.845.926.178 1.85 0 2.713-.385a10.626 10.626 0 002.852-1.945 84.987 84.987 0 002.432-2.352c4.138-4.15 8.27-8.302 12.399-12.453a17.412 17.412 0 002.062-2.401 6.797 6.797 0 001.045-2.18c.355-1.518.057-2.98-1.256-4.038a5.414 5.414 0 00-1.259-.724c-.95-.413-2.298-.52-3.172-.58C42.1.009 40.963.022 39.837.009c-1.169-.015-7.601-.01-9.763.03-.935.017-1.865.14-2.773.368-2.59.642-4.222 2.26-4.897 4.857-.39 1.503-.48 3.04-.5 4.583-.026 1.91-.063 3.859-.068 5.769 0 1.186.019 2.334.017 3.52-.001 1.186.012 2.378.204 3.556z" fill="url(#paint0_linear)"/><defs><linearGradient id="paint0_linear" x1="12.177" y1="9.206" x2="57.998" y2="54.933" gradientUnits="userSpaceOnUse"><stop stop-color="#FF8519"/><stop offset="1" stop-color="#FD238A"/></linearGradient></defs></symbol><symbol fill="none" id="phone" viewBox="0 0 17 25"><title>phone</title><rect x=".526" y=".5" width="14.975" height="24" rx="2.5" stroke="url(#paint0_linear)"/><path d="M5.192 22.084h5.591" stroke="url(#paint1_linear)" stroke-linecap="round"/><path d="M0 19.584h15.975" stroke="url(#paint2_linear)"/><path d="M.026 4.167h15.975" stroke="url(#paint3_linear)"/><defs><linearGradient id="paint0_linear" x1=".284" y1="15.896" x2="16.464" y2="13.036" gradientUnits="userSpaceOnUse"><stop stop-color="#FF742E"/><stop offset="1" stop-color="#FD238A"/></linearGradient><linearGradient id="paint1_linear" x1="5.282" y1="22.719" x2="7.004" y2="20.057" gradientUnits="userSpaceOnUse"><stop stop-color="#FF742E"/><stop offset="1" stop-color="#FD238A"/></linearGradient><linearGradient id="paint2_linear" x1=".258" y1="20.219" x2="1.071" y2="16.628" gradientUnits="userSpaceOnUse"><stop stop-color="#FF742E"/><stop offset="1" stop-color="#FD238A"/></linearGradient><linearGradient id="paint3_linear" x1=".284" y1="4.802" x2="1.097" y2="1.211" gradientUnits="userSpaceOnUse"><stop stop-color="#FF742E"/><stop offset="1" stop-color="#FD238A"/></linearGradient></defs></symbol><symbol fill="none" id="scheme" viewBox="0 0 30 27"><title>scheme</title><path d="M21.576 4.191L8.424 18.397a3 3 0 01-2.201.962H3a2 2 0 00-2 2V24a2 2 0 002 2h3.856a3 3 0 002.21-.972l13.017-14.185a3 3 0 012.21-.972H26a3 3 0 003-3v-.642a3 3 0 00-3-3h-2.223a3 3 0 00-2.2.962z" stroke="url(#paint0_linear)"/><path d="M11.7 7.024c0 1.042-.829 1.872-1.833 1.872-1.005 0-1.834-.83-1.834-1.872 0-1.041.829-1.872 1.834-1.872 1.004 0 1.833.83 1.833 1.872z" stroke="url(#paint1_linear)"/><path d="M7.5 16.512a.5.5 0 101 0h-1zm3.733-3.795a.5.5 0 001 0h-1zM8.5 16.512v-5.167h-1v5.167h1zm.5-5.667h1.733v-1H9v1zm2.233.5v1.372h1v-1.372h-1zm-.5-.5a.5.5 0 01.5.5h1a1.5 1.5 0 00-1.5-1.5v1zm-2.233.5a.5.5 0 01.5-.5v-1a1.5 1.5 0 00-1.5 1.5h1z" fill="url(#paint2_linear)"/><path d="M14.575 5.032L18.708 1m0 0h-2.8m2.8 0v2.846" stroke="url(#paint3_linear)" stroke-linecap="round"/><path d="M25.175 15.516l-9.8 9.963m0 0h2.8m-2.8 0v-2.847" stroke="url(#paint4_linear)" stroke-linecap="round"/><defs><linearGradient id="paint0_linear" x1="1.452" y1="17.708" x2="27.665" y2="8.791" gradientUnits="userSpaceOnUse"><stop stop-color="#FF742E"/><stop offset="1" stop-color="#FD238A"/></linearGradient><linearGradient id="paint1_linear" x1="7.609" y1="7.669" x2="12.147" y2="6.434" gradientUnits="userSpaceOnUse"><stop stop-color="#FF742E"/><stop offset="1" stop-color="#FD238A"/></linearGradient><linearGradient id="paint2_linear" x1="8.06" y1="14.266" x2="11.853" y2="13.631" gradientUnits="userSpaceOnUse"><stop stop-color="#FF742E"/><stop offset="1" stop-color="#FD238A"/></linearGradient><linearGradient id="paint3_linear" x1="14.642" y1="3.564" x2="18.638" y2="2.431" gradientUnits="userSpaceOnUse"><stop stop-color="#FF742E"/><stop offset="1" stop-color="#FD238A"/></linearGradient><linearGradient id="paint4_linear" x1="25.017" y1="19.144" x2="15.486" y2="21.738" gradientUnits="userSpaceOnUse"><stop stop-color="#FF742E"/><stop offset="1" stop-color="#FD238A"/></linearGradient></defs></symbol><symbol fill="none" id="search" viewBox="0 0 27 27"><title>search</title><path d="M18.434 18.5L26 26" stroke="url(#paint0_linear)" stroke-width="2" stroke-linecap="round"/><path d="M11 21c5.523 0 10-4.477 10-10S16.523 1 11 1 1 5.477 1 11s4.477 10 10 10z" stroke="url(#paint1_linear)" stroke-width="2"/><defs><linearGradient id="paint0_linear" x1="18.556" y1="23.269" x2="25.888" y2="21.223" gradientUnits="userSpaceOnUse"><stop stop-color="#FF742E"/><stop offset="1" stop-color="#FD238A"/></linearGradient><linearGradient id="paint1_linear" x1="1.323" y1="13.717" x2="20.728" y2="8.349" gradientUnits="userSpaceOnUse"><stop stop-color="#FF742E"/><stop offset="1" stop-color="#FD238A"/></linearGradient></defs></symbol><symbol fill="none" id="time" viewBox="0 0 25 25"><title>time</title><circle cx="12.5" cy="12.5" r="12" stroke="url(#paint0_linear)"/><path d="M12 5v8.089L18 18" stroke="url(#paint1_linear)" stroke-linecap="round"/><defs><linearGradient id="paint0_linear" x1=".404" y1="15.896" x2="24.66" y2="9.186" gradientUnits="userSpaceOnUse"><stop stop-color="#FF742E"/><stop offset="1" stop-color="#FD238A"/></linearGradient><linearGradient id="paint1_linear" x1="12.096" y1="13.266" x2="18.263" y2="12.479" gradientUnits="userSpaceOnUse"><stop stop-color="#FF742E"/><stop offset="1" stop-color="#FD238A"/></linearGradient></defs></symbol><symbol fill="none" id="way" viewBox="0 0 25 27"><title>way</title><path d="M23.573 1.188l-22.14 9.766a.2.2 0 00.006.368l9.446 3.812a.2.2 0 01.112.115l3.812 10.24a.2.2 0 00.376-.003L23.842 1.44a.2.2 0 00-.269-.25z" stroke="url(#paint0_linear)"/><defs><linearGradient id="paint0_linear" x1="1.371" y1="16.896" x2="23.933" y2="11.154" gradientUnits="userSpaceOnUse"><stop stop-color="#FF742E"/><stop offset="1" stop-color="#FD238A"/></linearGradient></defs></symbol></svg>