<svg width="251" height="33" viewBox="0 0 251 33" fill="none" xmlns="http://www.w3.org/2000/svg">
<path d="M250.815 10.7161V14.2785H241.653V23.4388H238.111V14.2785H228.967V10.7161H250.815Z" fill="#77C961"/>
<path d="M222.179 10.7161C225.125 10.7161 227.51 10.7343 227.51 16.0778C227.51 21.4395 225.125 21.4395 222.179 21.4395H209.042V23.4388H205.518V10.7161H222.179ZM222.215 17.8772C223.209 17.8772 224.004 17.859 224.004 16.0778C224.004 14.2785 223.209 14.2785 222.215 14.2785H209.042V17.8772H222.215Z" fill="#77C961"/>
<path d="M199.962 23.4388L199.276 21.076H185.813L185.126 23.4388H181.476L185.325 10.7161H199.763L203.631 23.4388H199.962ZM186.861 17.5137H198.264L197.324 14.2785H187.8L186.861 17.5137Z" fill="#77C961"/>
<path d="M182.396 10.7161V14.2785H173.234V23.4388H169.692V14.2785H160.548V10.7161H182.396Z" fill="#77C961"/>
<path d="M143.308 14.2785C141.772 14.2785 140.525 14.3512 140.525 17.0775C140.525 19.8038 141.772 19.8765 143.308 19.8765H158.994V23.4388H143.308C139.82 23.4388 137.001 23.4388 137.001 17.0775C137.001 10.7161 139.82 10.7161 143.308 10.7161H158.994V14.2785H143.308Z" fill="#77C961"/>
<path d="M130.947 10.7161H134.489V23.4388H130.947V15.4235L125.454 19.6765H120.846L115.334 15.4235V23.4388H111.81V10.7161H115.334L123.141 16.8412L130.947 10.7161Z" fill="#292A2A"/>
<path d="M102.987 10.7161C106.475 10.7161 109.294 10.7161 109.294 17.0775C109.294 23.4388 106.475 23.4388 102.969 23.4388H93.0482C89.5605 23.4388 86.7414 23.4388 86.7414 17.0775C86.7414 10.7161 89.5605 10.7161 93.0482 10.7161H102.987Z" fill="#292A2A"/>
<path d="M79.4117 10.7161C82.3572 10.7161 84.7426 10.7343 84.7426 16.0778C84.7426 21.4395 82.3572 21.4395 79.4117 21.4395H66.2741V23.4388H62.7502V10.7161H79.4117ZM79.4478 17.8772C80.4417 17.8772 81.2368 17.859 81.2368 16.0778C81.2368 14.2785 80.4417 14.2785 79.4478 14.2785H66.2741V17.8772H79.4478Z" fill="#292A2A"/>
<path d="M38.9615 10.7162H59.8335V23.4389H56.2916V14.2786H42.4853V23.4389H38.9615V10.7162Z" fill="#292A2A"/>
<path d="M101.931 16.3851C102.428 16.6615 102.429 17.3848 101.932 17.6619L95.0899 21.4813C94.6111 21.7486 94.0249 21.3978 94.0244 20.8437L94.0188 13.2152C94.0184 12.6612 94.6041 12.3095 95.0833 12.576L101.931 16.3851Z" fill="#77C961"/>
<path d="M12.2421 17.4764C13.506 17.4765 13.5815 17.6054 13.721 20.0125C13.8668 22.5305 13.879 22.5481 15.3924 22.4341C17.2772 22.2917 18.4229 23.3923 17.5181 24.4759C17.1706 24.8919 16.274 25.1463 15.3924 25.0797L13.8677 24.9652L13.7303 28.3469C13.5816 31.9921 12.9852 32.9368 10.834 32.9369C8.23554 32.9367 5.84767 30.6301 5.84767 28.1208C5.84758 27.517 5.3829 27.1144 4.45102 26.911C1.18168 26.1969 -1.06278 21.3458 0.51793 18.4102C0.828656 17.8336 1.5342 17.4764 2.36177 17.4764C3.4546 17.4765 3.78788 17.7666 4.16696 19.0467C5.16109 22.4023 9.4506 22.4023 10.4447 19.0467C10.8229 17.7699 11.1582 17.4764 12.2421 17.4764Z" fill="#292A2A"/>
<path d="M21.8884 13.1275C22.6581 13.1281 23.3071 14.4503 23.2071 15.8144C23.106 17.1935 23.1736 17.2385 25.5339 17.3762C28.3318 17.5395 29.1793 18.3199 29.1793 20.733C29.1793 23.6345 26.4846 27.1389 24.2531 27.1393C23.6567 27.1393 23.3466 27.4859 23.3466 28.152C23.3463 31.4357 19.3435 33.944 16.5093 32.4369C15.1406 31.7089 15.1215 27.1398 16.4871 27.1393C17.7601 27.1392 19.3591 25.6893 19.7076 24.2192C20.0902 22.6022 18.3766 20.3755 16.749 20.3752C15.7671 20.3752 15.5691 20.1364 15.5691 18.9507C15.5691 17.5734 15.6531 17.522 18.1213 17.3804C20.6147 17.2379 20.6706 17.2021 20.569 15.8144C20.5117 15.0327 20.7019 14.1084 20.9926 13.7605C21.2833 13.4123 21.6867 13.1275 21.8884 13.1275Z" fill="#77C961"/>
<path d="M8.33116 0.757193C9.74365 -0.0210586 11.4232 -0.0881066 12.685 0.582953C13.4119 0.969955 13.6251 1.60446 13.6251 3.38218C13.6251 5.55826 13.5405 5.70538 12.0453 6.143C9.92116 6.7648 8.94279 8.73039 9.83084 10.5915C10.2221 11.4114 11.0707 12.0967 12.0453 12.3822C13.3296 12.758 13.625 13.0917 13.6251 14.1687C13.6251 15.4253 13.4949 15.5008 11.0729 15.6395C8.5396 15.7844 8.52197 15.7964 8.63667 17.3008C8.78006 19.1744 7.67273 20.3132 6.58248 19.4137C6.16397 19.0683 5.90795 18.1772 5.97503 17.3008C6.08972 15.7965 6.07148 15.7844 3.54234 15.6395C0.474779 15.4636 -0.220259 14.5662 0.154458 11.2621C0.352296 9.51659 0.769615 8.72192 2.14712 7.46722C3.10511 6.59477 4.32958 5.88063 4.86815 5.88057C5.55428 5.88051 5.85311 5.55554 5.86484 4.79388C5.88919 3.26868 6.96248 1.51093 8.33116 0.757193Z" fill="#292A2A"/>
<path d="M16.407 0.686786C18.9258 -1.2006 23.3465 1.48246 23.3466 4.89914C23.3467 5.50295 23.8111 5.90548 24.7432 6.10886C29.2106 7.08447 31.0834 15.5432 26.8325 15.5434C25.7417 15.5434 25.4047 15.2526 25.0266 13.9838C24.7597 13.0891 23.9919 12.1106 23.2249 11.6888C22.0283 11.0303 21.7477 11.0304 20.5511 11.6888C19.7842 12.1106 19.0164 13.0892 18.7495 13.9838C18.3724 15.2495 18.0334 15.5434 16.9522 15.5434C15.688 15.5434 15.6127 15.4146 15.4732 13.0074C15.3274 10.4894 15.3146 10.4718 13.8011 10.5858C11.9164 10.7282 10.7707 9.62754 11.6754 8.54396C12.023 8.12808 12.9195 7.87353 13.8011 7.94016L15.3259 8.05466L15.4639 4.67298C15.5646 2.20619 15.8194 1.12743 16.407 0.686786Z" fill="#292A2A"/>
</svg>
