<svg width="28" height="28" viewBox="0 0 28 28" fill="none" xmlns="http://www.w3.org/2000/svg">
<path d="M8.29264 18.2931C7.90226 18.6838 7.90248 19.317 8.29314 19.7074C8.68381 20.0977 9.31697 20.0975 9.70736 19.7069L9 19L8.29264 18.2931ZM19.9929 8.99964C19.9927 8.44736 19.5448 7.9998 18.9926 8L9.99256 8.00319C9.44028 8.00338 8.99272 8.45126 8.99292 9.00354C8.99311 9.55583 9.44099 10.0034 9.99327 10.0032L17.9933 10.0004L17.9961 18.0004C17.9963 18.5526 18.4442 19.0002 18.9965 19C19.5487 18.9998 19.9963 18.5519 19.9961 17.9996L19.9929 8.99964ZM9 19L9.70736 19.7069L19.7003 9.70685L18.9929 9L18.2856 8.29314L8.29264 18.2931L9 19Z" fill="#A8E996"/>
<circle cx="14" cy="14" r="13" stroke="#A8E996" stroke-width="1.5" stroke-linecap="round" stroke-dasharray="6 6"/>
</svg>
