<svg width="35" height="35" viewBox="0 0 35 35" fill="none" xmlns="http://www.w3.org/2000/svg">
<g clip-path="url(#clip0_4830_24)">
<path d="M0 17.4975C0 7.84237 7.8495 -0.00492379 17.5074 2.31799e-06C27.1702 0.00492843 35.0099 7.85715 35 17.5172C34.9901 27.1724 27.1259 35.0246 17.4729 35C7.81993 34.9754 0 27.1429 0 17.4975ZM28.1114 28.0099C33.3887 22.9064 34.3348 13.5911 28.4218 7.27094C22.4152 0.852219 12.2744 0.945815 6.40082 7.46306C0.611009 13.8867 1.74926 23.0739 6.88864 28.0049C6.9527 27.8867 7.01183 27.7734 7.08081 27.665C8.64283 25.0246 10.939 23.5271 14.0187 23.4138C16.3445 23.3301 18.6703 23.3793 21.001 23.4039C22.3807 23.4187 23.6668 23.8227 24.8592 24.5172C26.2833 25.3547 27.3575 26.5222 28.1163 28.0148L28.1114 28.0099Z" fill="#292A2A"/>
<path d="M24.2285 14.1379C24.2236 17.8522 21.2129 20.867 17.5025 20.867C13.7822 20.867 10.7469 17.8227 10.7715 14.1084C10.7961 10.3793 13.7921 7.39902 17.5123 7.40887C21.2326 7.41872 24.2334 10.4236 24.2285 14.1379Z" fill="#292A2A"/>
</g>
<defs>
<clipPath id="clip0_4830_24">
<rect width="35" height="35" fill="white"/>
</clipPath>
</defs>
</svg>
